<svg xmlns="http://www.w3.org/2000/svg" width="100" height="80" viewBox="0 0 100 80">
    <g fill="none" fill-rule="evenodd">
        <g fill="#FFF">
            <path d="M145.154 39.595c-1.38-1.852-3.211-3.3-5.422-4.354-4.918-2.864-12.082-3.856-20.81-2.8v-.42H87.19v9.783h4.68v41.764h11.637V41.804h15.413v-9.046c6.696-.27 11.932 1.059 15.142 3.852 1.709 1.017 3.055 2.312 3.962 3.898 2.865 5.01 1.221 12.259-4.629 20.411-5.943 8.286-15.49 16.453-26.881 23-9.788 5.624-20.228 9.57-29.398 11.107-9.858 1.654-17.503.495-21.7-3.154-1.71-1.018-3.056-2.314-3.962-3.9-1.465-2.562-1.723-5.664-.952-9.078 4.264 4.085 9.664 5.623 14.385 5.623 14.226 0 19.192-8.367 19.192-18.473v-24.24h.002V32.02h-.002V32H52.34v9.782h20.08V65.09c0 7.06-2.687 9.35-7.918 9.35-3.397 0-6.874-1.987-9.815-5.66L48 76.01c.747 1.045 1.56 1.97 2.417 2.799-2.819 6.34-3.299 12.169-.747 16.631.834 1.46 1.931 2.737 3.262 3.83 5.47 3.376 13.877 4.33 24.217 2.597 10.165-1.706 21.148-5.831 31.76-11.93 12.692-7.293 23.27-16.533 29.791-26.017 6.607-9.61 8.271-18.355 4.687-24.625-.744-1.3-1.707-2.446-2.846-3.458 1.03.783 1.936 1.685 2.702 2.714 4.311 5.791 3.709 14.674-1.697 25.01-4.853 9.283-13.075 18.767-23.347 27.009-.746-.557-1.707-.817-2.69-.623-1.85.366-3.052 2.163-2.688 4.016.038.195.1.378.17.558-9.18 6.555-18.812 11.426-27.993 14.137-10.056 2.97-18.518 3.036-24.352.345 5.816 3.71 15.046 4.012 26.262.701h.001c8.942-2.641 18.31-7.334 27.272-13.633.74.534 1.683.777 2.646.586 1.848-.365 3.051-2.163 2.687-4.015-.03-.155-.084-.297-.133-.442 10.615-8.376 19.108-18.09 24.076-27.593 5.405-10.338 6.008-19.22 1.697-25.012" transform="translate(-48 -32)"/>
        </g>
    </g>
</svg>
