<svg width="40" height="40" viewBox="0 0 40 40" xmlns="http://www.w3.org/2000/svg">
    <path d="M39.55 15.8a19.998 19.998 0 0 0-39.22.595A20 20 0 0 0 12.624 38.59a19.996 19.996 0 0 0 24.166-7.73 19.952 19.952 0 0 0 2.76-15.06zm-6.818 5.94-5.73-.62-1.26-3.26-1.26-3.28 3.1-4.78 3.9-.18h.07a15.48 15.48 0 0 1 3.63 7.12c.15.743.247 1.495.29 2.25l-2.74 2.75zm-7.34-16.13 1.09 2.91-3.369 5.2-3.5.19-3.39.18-2.929-5 1.35-3.56v-.09c.676-.241 1.368-.438 2.07-.59a15.506 15.506 0 0 1 8.569.59l.11.17zM8.596 9.5l3.19.16 3.12 5.33-.9 3.5-.84 3.17-5.81 1.72-2.78-1.93a15.442 15.442 0 0 1 2.43-9.88 15 15 0 0 1 1.59-2.07zm-1.68 18.77 1-3.41 5.48-1.63 3.159 2 3 1.93.81 6-2.45 2.1A15.538 15.538 0 0 1 6.915 28.2v.07zm17.688 6.52-2.6-1.62-.82-6.1 2.7-2.19 2.72-2.2 6.329.68 1.38 2.69c-.37.822-.809 1.612-1.31 2.36a15.418 15.418 0 0 1-8.4 6.38zM38.06 16.41l-1.5 1.5c-.06-.48-.14-.95-.24-1.41a16.77 16.77 0 0 0-3.29-7l2.07-.09a18.331 18.331 0 0 1 2.9 6.73l.06.27zM24.003 1.99l.74 2a16.706 16.706 0 0 0-8.27-.32c-.44.09-.859.2-1.289.33l.82-2.01h.18c2.576-.559 5.243-.559 7.819 0zm-19.448 8c.14-.23.3-.45.45-.67l2.08.1c-.385.482-.746.983-1.08 1.5a16.652 16.652 0 0 0-2.67 9.66l-1.73-1.2a18.242 18.242 0 0 1 2.95-9.39zm1.3 21.79.61-2a16.768 16.768 0 0 0 10.269 6.6l-1.61 1.38a18.607 18.607 0 0 1-9.269-6v.02zm21.877 4.92-1.81-1.1a16.638 16.638 0 0 0 8.08-6.54 17.26 17.26 0 0 0 1-1.66l.94 1.86a18.288 18.288 0 0 1-8.209 7.44z" fill="#FDF6CC" fill-rule="nonzero"/>
</svg>
