<svg width="40" height="40" viewBox="0 0 40 40" xmlns="http://www.w3.org/2000/svg">
    <path d="M40.002 20.84a.731.731 0 0 0-.38-.59l-2.06-1.17c.28-.88 1.13-3.562 1.72-5.403a.73.73 0 0 0-.16-.72.75.75 0 0 0-.7-.24l-5.06 1-1.51-2.641a.78.78 0 0 0-.58-.38.75.75 0 0 0-.64.26l-4 4.622c.33-1.48 1.5-6.543 2.32-10.005a.75.75 0 0 0-1.1-.82c-1.12.61-2.81 1.53-3.6 1.94L20.651.38a.73.73 0 0 0-.65-.38.76.76 0 0 0-.66.38l-3.57 6.253c-.78-.41-2.48-1.33-3.6-1.94a.74.74 0 0 0-.81.06.72.72 0 0 0-.28.76l2.32 10.065-4-4.632a.75.75 0 0 0-.64-.26.78.78 0 0 0-.58.38l-1.5 2.63-5.06-1a.75.75 0 0 0-.74.31.73.73 0 0 0-.15.72c.58 1.842 1.44 4.513 1.71 5.404l-2.06 1.12a.73.73 0 0 0-.38.59.77.77 0 0 0 .28.64l9.59 7.535c-.17.66-.65 2.52-1 3.741a.74.74 0 0 0 .19.69.75.75 0 0 0 .69.22l9.47-2v7.584a.75.75 0 1 0 1.5 0v-7.554l9.47 2h.15a.76.76 0 0 0 .55-.23.72.72 0 0 0 .18-.7c-.32-1.2-.8-3.071-1-3.731l9.59-7.534a.771.771 0 0 0 .34-.66zm-11 7.174-.07.07a1.22 1.22 0 0 0-.35.85c.192 1.042.446 2.07.76 3.082l-8.59-1.79v-2.212l11.57-7.954a.73.73 0 0 0 .18-1 .74.74 0 0 0-1-.18l-10.75 7.323V10.315a.75.75 0 1 0-1.5 0v3.272l-1.09-.94a.76.76 0 0 0-1.06.07.73.73 0 0 0 .07 1l2.08 1.8v10.686l-4.41-3.001a.76.76 0 0 0-1.05.19.74.74 0 0 0 .19 1l5.27 3.622v2.161l-8.59 1.841c.308-1.002.559-2.02.75-3.051a1.25 1.25 0 0 0-.35-.86l-.06-.091-8.92-7.003 1.3-.73a1.23 1.23 0 0 0 .62-1.091c-.401-1.617-.892-3.21-1.47-4.773 4.16.81 4.16.81 4.25.81a1.28 1.28 0 0 0 1-.46l.08-.11 1.1-1.94 3.54 4.091.05.06c.272.251.629.39 1 .39a1.42 1.42 0 0 0 1.45-1.41 1.311 1.311 0 0 0 0-.35l-2-8.705c2.73 1.481 2.76 1.481 3 1.481a1.16 1.16 0 0 0 1-.51v-.06l3-5.453 3.13 5.473c.21.35.592.559 1 .55.23 0 .26 0 3-1.48-2.13 8.914-2.13 8.944-2.13 9.054a1.421 1.421 0 0 0 1.43 1.41 1.49 1.49 0 0 0 1-.37.3.3 0 0 0 .08-.08l3.56-4.092 1.1 1.941a1.27 1.27 0 0 0 1.05.57c.09 0 .09 0 4.24-.81a44.759 44.759 0 0 0-1.46 4.773c0 .441.237.85.62 1.07l1.3.73-8.92 7.024z" fill="#FDF6CC" fill-rule="nonzero"/>
</svg>
