<svg xmlns="http://www.w3.org/2000/svg" xmlns:xlink="http://www.w3.org/1999/xlink" width="26.550003051757812" height="31.739990234375" viewBox="0 0 26.550003051757812 31.739990234375" fill="none">
<path d="M6.53 10.44L6.53 21.29C6.53 22.65 6.78 23.71 7.28999 24.47C7.79999 25.22 8.50999 25.6 9.42999 25.6C10.35 25.6 11.06 25.22 11.57 24.48C11.67 24.33 11.77 24.16 11.85 23.98L18.68 23.98C18.36 26.06 17.59 27.76 16.38 29.07C14.73 30.85 12.42 31.74 9.42999 31.74C6.44 31.74 4.12999 30.85 2.48 29.07C0.830002 27.28 0 24.78 0 21.57L0 10.17C0 6.95 0.830002 4.45 2.48 2.67C4.12999 0.889999 6.44 0 9.42999 0C12.42 0 14.73 0.889999 16.38 2.67C18.03 4.45 18.86 6.95 18.86 10.17L18.86 16.43L12.34 16.43L12.34 10.45C12.34 9.08 12.09 8.01 11.58 7.27C11.07 6.53 10.36 6.15 9.43999 6.15C8.51999 6.15 7.80998 6.53 7.29999 7.28C6.78999 8.04 6.53999 9.1 6.53999 10.46L6.53 10.44ZM13.88 16.84C13.49 17.89 12.85 18.94 12.17 19.61C12.28 19.77 12.47 20.13 12.54 20.29C12.75 20.07 12.96 19.81 13.16 19.53L13.16 23.41L13.79 23.41L13.79 18.54C14.06 18.06 14.31 17.54 14.5 17.04L13.87 16.85L13.88 16.84ZM16.95 20.63L18.09 20.63L18.09 19.59L16.95 19.59L16.95 20.63ZM15.23 20.63L16.32 20.63L16.32 19.59L15.25 19.59L15.25 19.9C15.25 20.13 15.25 20.38 15.23 20.63L15.23 20.63ZM16.32 17.95L15.25 17.95L15.25 18.99L16.32 18.99L16.32 17.95ZM18.09 18.99L18.09 17.95L16.95 17.95L16.95 18.99L18.09 18.99ZM18.73 17.35L14.62 17.35L14.62 19.89C14.62 20.88 14.56 22.15 13.9 23.02C14.04 23.1 14.3 23.31 14.41 23.44C14.86 22.84 15.09 22.02 15.18 21.22L16.32 21.22L16.32 23.33L16.95 23.33L16.95 21.22L18.09 21.22L18.09 22.65C18.09 22.75 18.06 22.79 17.96 22.79C17.87 22.79 17.57 22.79 17.27 22.78C17.36 22.95 17.44 23.23 17.46 23.4C17.93 23.4 18.24 23.39 18.45 23.28C18.66 23.18 18.72 22.99 18.72 22.67L18.72 17.35L18.73 17.35ZM21.72 18.91C22.26 18.59 22.75 18.2 23.17 17.74C23.6 18.17 24.13 18.57 24.7 18.91L21.73 18.91L21.72 18.91ZM25.02 19.53L25.02 19.09C25.38 19.29 25.74 19.46 26.09 19.59C26.19 19.41 26.4 19.14 26.55 19.01C25.47 18.69 24.26 18 23.55 17.3C23.61 17.21 23.67 17.12 23.74 17.03L23.11 16.75C22.43 17.81 21.12 18.6 19.78 19.01C19.95 19.18 20.13 19.43 20.23 19.63C20.59 19.5 20.94 19.35 21.27 19.17L21.27 19.54L22.77 19.54L22.77 20.41L20.39 20.41L20.39 21.01L22.77 21.01L22.77 22.62L20.06 22.62L20.06 23.23L26.24 23.23L26.24 22.62L23.48 22.62L23.48 21.01L25.89 21.01L25.89 20.41L23.48 20.41L23.48 19.54L25 19.54L25.02 19.53ZM24.56 22.58L24.05 22.36C24.3 22.01 24.6 21.47 24.75 21.07L25.4 21.31C25.13 21.76 24.81 22.25 24.56 22.58ZM20.96 21.29L21.51 21.07C21.78 21.45 22.07 21.98 22.19 22.32L21.61 22.57C21.51 22.23 21.23 21.69 20.97 21.29L20.96 21.29Z" fill-rule="evenodd"  fill="#4D4D4D" >
</path>
</svg>
