<svg xmlns="http://www.w3.org/2000/svg" xmlns:xlink="http://www.w3.org/1999/xlink" width="34.5999755859375" height="34.60009765625" viewBox="0 0 34.5999755859375 34.60009765625" fill="none">
<path d="M17.3 0C22.08 0 26.4 1.94 29.53 5.07C32.66 8.2 34.6 12.53 34.6 17.3C34.6 22.07 32.66 26.4 29.53 29.53C26.4 32.66 22.0699 34.6 17.3 34.6C12.53 34.6 8.20001 32.66 5.07001 29.53C1.94 26.4 0 22.08 0 17.3C0 12.52 1.94 8.2 5.07001 5.07C8.20001 1.94 12.52 3.8147e-06 17.3 3.8147e-06L17.3 0ZM15.11 9.02L8.34998 15.55L22.7 15.55L22.7 11.85L15.1699 11.82L15.0999 9.03L15.11 9.02ZM19.49 25.57L26.25 19.04L11.9 19.04L11.9 22.74L19.4301 22.77L19.5001 25.56L19.49 25.57ZM26.73 7.86C24.32 5.45 20.98 3.95 17.3 3.95C13.62 3.95 10.28 5.44 7.87 7.86C5.46002 10.27 3.96002 13.61 3.96002 17.29C3.96002 20.97 5.45001 24.31 7.87 26.72C10.28 29.13 13.62 30.63 17.3 30.63C20.98 30.63 24.32 29.14 26.73 26.72C29.14 24.31 30.64 20.97 30.64 17.29C30.64 13.61 29.15 10.27 26.73 7.86Z" fill-rule="evenodd"  fill="#4D4D4D" >
</path>
</svg>
