<svg xmlns="http://www.w3.org/2000/svg" xmlns:xlink="http://www.w3.org/1999/xlink" width="32.319976806640625" height="32.330078125" viewBox="0 0 32.319976806640625 32.330078125" fill="none">
<path d="M16.16 0C20.62 0 24.67 1.81 27.59 4.73C30.52 7.65999 32.32 11.7 32.32 16.16C32.32 16.34 32.32 16.52 32.32 16.69L29.47 16.69C29.47 16.51 29.48 16.33 29.48 16.16C29.48 12.48 27.99 9.14999 25.58 6.73999C23.17 4.32999 19.84 2.84 16.16 2.84C12.48 2.84 9.14999 4.33 6.73999 6.73999C4.32999 9.14999 2.84 12.48 2.84 16.16C2.84 19.84 4.32999 23.17 6.73999 25.58C9.14999 27.99 12.48 29.48 16.16 29.48C16.28 29.48 16.4 29.48 16.51 29.48L16.51 32.33C16.39 32.33 16.27 32.33 16.16 32.33C11.7 32.33 7.64999 30.52 4.73001 27.6C1.80002 24.67 0 20.63 0 16.17C0 11.71 1.81 7.66 4.73001 4.74001C7.66 1.81001 11.7 0.0100098 16.16 0.0100098L16.16 0ZM29.2 22.08L29.2 32.12L32.31 32.12L32.31 22.08L29.2 22.08ZM24.92 19.45L24.92 32.12L28.03 32.12L28.03 19.45L24.92 19.45ZM20.66 25.06L20.66 32.12L23.77 32.12L23.77 25.06L20.66 25.06ZM20.98 10.54C20.1 9.62 19.06 8.89 17.6 8.68999L17.6 6.36998L15.58 6.36998L15.58 8.72998C13.44 9.13998 12.12 10.67 12.12 12.89C12.12 17.15 18.31 16.9 18.31 19.66C18.31 20.82 17.66 21.45 16.23 21.45C15.07 21.45 13.9901 20.94 12.8701 20.06L11.55 22.08C12.63 23.06 14.2 23.69 15.58 23.85L15.58 26.13L17.6 26.13L17.6 23.77C19.94 23.32 21.19 21.67 21.19 19.45C21.19 14.89 15 15.27 15 12.75C15 11.63 15.67 11.06 16.87 11.06C17.91 11.06 18.64 11.49 19.48 12.26L20.99 10.55L20.98 10.54Z" fill-rule="evenodd"  fill="#4D4D4D" >
</path>
</svg>
