<svg xmlns="http://www.w3.org/2000/svg" xmlns:xlink="http://www.w3.org/1999/xlink" width="29.840011596679688" height="37.760009765625" viewBox="0 0 29.840011596679688 37.760009765625" fill="none">
<path d="M27.34 22.71C27.34 27.25 23.17 31.39 14.93 35.02C6.66 30.99 2.47 26.85 2.47 22.71L2.47 13.36C6.54001 13.09 10.69 11.54 14.84 8.73999C17.82 11.01 22.01 12.53 27.33 13.26L27.33 22.71L27.34 22.71ZM7.42001 22.34L12 26.99C12.64 27.65 13.7 27.66 14.36 27.02L24.27 17.52C24.94 16.88 24.96 15.82 24.32 15.15C23.68 14.48 22.62 14.46 21.95 15.1L13.24 23.45L9.82002 19.98C9.17003 19.32 8.11002 19.31 7.45003 19.96C6.79002 20.61 6.78003 21.67 7.43002 22.33L7.42001 22.34ZM2.48001 10.87C6.28001 10.59 10.22 9.00999 14.19 6.17999L14.99 5.60999L15.73 6.24998C18.31 8.49998 22.22 10.01 27.35 10.75L27.35 7.64998C22.03 6.92998 17.84 5.40997 14.86 3.12997C10.71 5.93997 6.55002 7.48997 2.49002 7.74997L2.49002 10.87L2.48001 10.87ZM28.73 5.31C22.92 4.64999 18.54 3.08 15.73 0.639999L14.99 0L14.19 0.570007C9.78 3.72 5.42 5.31001 1.24001 5.31001L0 5.31001L0 22.72C0 28.06 4.7 32.9 14.38 37.52L14.89 37.76L15.41 37.54C24.98 33.43 29.84 28.44 29.84 22.72L29.84 5.45003L28.74 5.32002L28.73 5.31Z" fill-rule="evenodd"  fill="#4D4D4D" >
</path>
</svg>
