<svg xmlns="http://www.w3.org/2000/svg" xmlns:xlink="http://www.w3.org/1999/xlink" width="37.3699951171875" height="27.2900390625" viewBox="0 0 37.3699951171875 27.2900390625" fill="none">
<path d="M33.72 24.2L32.76 18.54L24.87 18.54L23.91 24.2L33.72 24.2ZM23.6 8.76001L22.64 3.10001L14.75 3.10001L13.79 8.76001L23.6 8.76001ZM25.46 1.3L27.25 11.85L10.13 11.85L12.14 0L25.24 0L25.46 1.28999L25.46 1.3ZM13.47 24.2L12.51 18.54L4.62 18.54L3.66 24.2L13.47 24.2ZM15.33 16.74L17.12 27.29L0 27.29L2.01001 15.44L15.11 15.44L15.33 16.73L15.33 16.74ZM35.58 16.74L37.37 27.29L20.25 27.29L22.26 15.44L35.36 15.44L35.58 16.73L35.58 16.74Z" fill-rule="evenodd"  fill="#4D4D4D" >
</path>
</svg>
