<svg xmlns="http://www.w3.org/2000/svg" xmlns:xlink="http://www.w3.org/1999/xlink" width="28.589996337890625" height="36.159912109375" viewBox="0 0 28.589996337890625 36.159912109375" fill="none">
<path d="M26.2 21.77C26.2 26.12 22.2 30.08 14.32 33.56C6.39999 29.7 2.39001 25.73 2.39001 21.77L2.39001 7.44C6.29001 7.19 10.26 5.7 14.24 3.01C17.1 5.19 21.11 6.64 26.2 7.33L26.2 21.76L26.2 21.77ZM27.52 5.1C21.95 4.47 17.76 2.96 15.07 0.620001L14.36 0L13.6 0.549999C9.38 3.56 5.20001 5.09 1.19 5.09L0 5.09L0 21.76C0 26.87 4.51001 31.51 13.78 35.93L14.27 36.16L14.77 35.95C23.94 32.01 28.59 27.24 28.59 21.76L28.59 5.21L27.53 5.09L27.52 5.1Z" fill-rule="evenodd"  fill="#4D4D4D" >
</path>
</svg>
