<svg xmlns="http://www.w3.org/2000/svg" xmlns:xlink="http://www.w3.org/1999/xlink" width="27.69000244140625" height="32.219970703125" viewBox="0 0 27.69000244140625 32.219970703125" fill="none">
<path d="M3.20999 13.99L6.47 13.99L12.99 32.22L3.20999 32.22C1.44 32.22 0 30.77 0 29.01L0 17.21C0 15.44 1.45001 14 3.20999 14L3.20999 13.99ZM13.85 0C9.89001 0 6.67999 3.21 6.67999 7.17C6.67999 11.13 9.88998 14.34 13.85 14.34C17.81 14.34 21.02 11.13 21.02 7.17C21.02 3.21 17.81 3.8147e-06 13.85 3.8147e-06L13.85 0ZM13.72 15L10.14 17.94L13.72 28.15L17.36 17.94L13.72 15ZM20.04 24.96L23.83 24.96C24.13 24.96 24.37 25.2 24.37 25.5C24.37 25.8 24.13 26.04 23.83 26.04L20.04 26.04C19.74 26.04 19.5 25.8 19.5 25.5C19.5 25.2 19.74 24.96 20.04 24.96ZM20.5 13.99L24.48 13.99C26.25 13.99 27.69 15.44 27.69 17.2L27.69 29C27.69 30.77 26.24 32.21 24.48 32.21L14.03 32.21L20.49 13.98L20.5 13.99Z" fill-rule="evenodd"  fill="#4D4D4D" >
</path>
</svg>
