<svg xmlns="http://www.w3.org/2000/svg" xmlns:xlink="http://www.w3.org/1999/xlink" width="30.94000244140625" height="31.452392578125" viewBox="0 0 30.94000244140625 31.452392578125" fill="none">
<path d="M16.57 0.352509C15.92 -0.117493 15.02 -0.117493 14.37 0.352509L0 10.8325L0 29.5825C0 30.6125 0.840027 31.4525 1.87 31.4525L29.07 31.4525C30.1 31.4525 30.94 30.6125 30.94 29.5825L30.94 10.8325L16.57 0.352509ZM23.85 21.9425C23.54 21.9525 23.27 21.7025 23.26 21.3925L23.11 17.4225L17.4 23.3825C17.18 23.6125 16.8199 23.6125 16.59 23.4025L11.96 18.5225L7.52997 23.2725C7.31995 23.5025 6.94995 23.5125 6.71997 23.3025C6.48999 23.0925 6.47998 22.7225 6.68994 22.4925L11.5599 17.2725C11.7899 17.0525 12.15 17.0625 12.3699 17.2925L16.9899 22.1625L22.2899 16.6325C20.8199 16.6025 18.6199 16.5525 18.3899 16.5125C18.0799 16.4625 17.8699 16.1725 17.9199 15.8525C17.9699 15.5425 18.2599 15.3325 18.5799 15.3825C18.7799 15.4125 23.6299 15.5125 23.6399 15.5125C23.9399 15.5125 24.1899 15.7625 24.1999 16.0625L24.4099 21.3625C24.4199 21.6825 24.1699 21.9425 23.8599 21.9525L23.85 21.9425Z"   fill="#4D4D4D" >
</path>
</svg>
