<svg xmlns="http://www.w3.org/2000/svg" xmlns:xlink="http://www.w3.org/1999/xlink" width="29.31999969482422" height="31.969970703125" viewBox="0 0 29.31999969482422 31.969970703125" fill="none">
<path d="M1.79 0L27.53 0C28.52 0 29.32 0.809998 29.32 1.78999L29.32 24.8C29.32 28.75 26.09 31.97 22.15 31.97L1.79 31.97C0.800003 31.97 0 31.16 0 30.18L0 1.78999C0 0.799988 0.809998 0 1.79 0ZM19.94 28.24L21.59 28.24L21.59 26.2L23.78 26.2L23.78 25.22L21.59 25.22L21.59 24.36L23.78 24.36L23.78 23.38L21.95 23.38L24.61 18.47L22.69 18.47L21.68 20.85C21.29 21.82 21.14 22.2 20.81 22.92L20.75 22.92C20.45 22.21 20.3 21.86 19.88 20.85L18.85 18.47L16.9 18.47L19.55 23.38L17.74 23.38L17.74 24.36L19.94 24.36L19.94 25.22L17.74 25.22L17.74 26.2L19.94 26.2L19.94 28.24L19.94 28.24ZM7.44 19.44C6.67001 19.44 6.03 20.07 6.03 20.85C6.03 21.63 6.66 22.26 7.44 22.26L10.79 22.26C11.56 22.26 12.2 21.63 12.2 20.85C12.2 20.07 11.57 19.44 10.79 19.44L7.44 19.44ZM7.27 13.42C6.49001 13.42 5.86 14.05 5.86 14.83C5.86 15.61 6.49 16.24 7.27 16.24L18.95 16.24C19.73 16.24 20.36 15.61 20.36 14.83C20.36 14.05 19.73 13.42 18.95 13.42L7.27 13.42ZM7.3 7.14999C6.53001 7.14999 5.89 7.78 5.89 8.56C5.89 9.34 6.52 9.97 7.3 9.97L14.72 9.97C15.49 9.97 16.13 9.34 16.13 8.56C16.13 7.78 15.5 7.14999 14.72 7.14999L7.3 7.14999Z" fill-rule="evenodd"  fill="#4D4D4D" >
</path>
</svg>
