<svg width="71" height="71" viewBox="0 0 71 71" xmlns="http://www.w3.org/2000/svg" xmlns:xlink="http://www.w3.org/1999/xlink">
    <defs>
        <path id="xr9p036pfa" d="M0 .054h69.94V70H0z"/>
    </defs>
    <g fill="none" fill-rule="evenodd">
        <g transform="translate(.5 .5)">
            <mask id="7xdgxv1frb" fill="#fff">
                <use xlink:href="#xr9p036pfa"/>
            </mask>
            <path d="M34.97 3.288c-8.466 0-16.43 3.296-22.426 9.28-6.004 5.994-9.31 13.97-9.31 22.46 0 8.5 3.294 16.475 9.277 22.46 5.983 5.983 13.96 9.278 22.459 9.278 8.499 0 16.475-3.295 22.458-9.279 5.983-5.984 9.278-13.96 9.278-22.46 0-8.49-3.307-16.465-9.31-22.458C51.4 6.584 43.436 3.288 34.97 3.288m0 66.712c-9.364 0-18.152-3.631-24.745-10.227C3.63 53.18 0 44.391 0 35.027c0-9.354 3.644-18.143 10.26-24.747a34.876 34.876 0 0 1 11.116-7.483A34.746 34.746 0 0 1 34.97.054c4.711 0 9.284.923 13.593 2.743A34.876 34.876 0 0 1 59.68 10.28c6.616 6.604 10.26 15.393 10.26 24.747 0 9.364-3.632 18.152-10.225 24.746C53.12 66.37 44.333 70 34.97 70" fill="#FEFEFE" mask="url(#7xdgxv1frb)"/>
        </g>
        <path d="M48.751 25.018 25.862 48.725a2.494 2.494 0 0 1-3.613 0 2.714 2.714 0 0 1 0-3.743l22.888-23.707a2.495 2.495 0 0 1 3.614 0 2.714 2.714 0 0 1 0 3.743" fill="#FEFEFE"/>
        <path d="m45.138 48.725-22.89-23.707a2.715 2.715 0 0 1 0-3.743 2.494 2.494 0 0 1 3.614 0l22.89 23.706a2.716 2.716 0 0 1 0 3.744 2.494 2.494 0 0 1-3.614 0" fill="#FEFEFE"/>
    </g>
</svg>
